<svg width="1024" height="1024" xmlns="http://www.w3.org/2000/svg" p-id="48155" version="1.1" class="icon" t="1671678170800">

 <g>
  <title>Layer 1</title>
  <path id="svg_1" p-id="48156" fill="#EDB52B" d="m498.4955,758.40006c18.4,0 33.3,-5.7 33.3,-33.3c0,-27.6 -33.3,-66.6 -33.3,-66.6s-33.3,39 -33.3,66.6c0,27.6 14.9,33.3 33.3,33.3m149.9,0c18.4,0 33.3,-5.7 33.3,-33.3c0,-27.6 -33.3,-66.6 -33.3,-66.6s-33.3,39 -33.3,66.6c0,27.6 14.9,33.3 33.3,33.3m-299.7,0c18.4,0 33.3,-5.7 33.3,-33.3c0,-27.6 -33.3,-66.6 -33.3,-66.6s-33.3,39 -33.3,66.6c0,27.6 14.9,33.3 33.3,33.3"/>
  <path stroke="null" id="svg_2" p-id="48157" fill="#EEE3D2" d="m287.09538,639.39888l432.9,0c56.79952,0 69.09994,-76.51809 66.6,-176.59735l0,-176.59735l-566.1,0l-2.49994,176.59735c-2.49994,97.57931 17.3003,176.59735 69.09994,176.59735m416.2,-220.6141l0,88.29867l0,-88.29867zm-49.9,44.01676l-33.3,0l33.3,0zm-66.6,0l-33.3,0l33.3,0z"/>
  <path id="svg_6" p-id="48161" fill="#353535" d="m215.4955,875.00006l549.5,0l0,33.3l-549.5,0l0,-33.3z"/>
  <rect id="svg_8" height="84.99796" width="27.49934" y="791.7187" x="274.50566" stroke="null" fill="#353535"/>
  <rect id="svg_11" height="84.99796" width="27.49934" y="796.71858" x="484.50063" stroke="null" fill="#353535"/>
  <rect id="svg_12" height="84.99796" width="27.49934" y="799.21852" x="679.49594" stroke="null" fill="#353535"/>
  <rect stroke="null" id="svg_13" height="29.99928" width="84.99796" y="789.21876" x="277.0056" fill="#353535"/>
  <rect stroke="null" id="svg_14" height="29.99928" width="84.99796" y="791.7187" x="621.99734" fill="#353535"/>
  <rect stroke="null" id="svg_16" height="37.49909" width="89.99784" y="316.73011" x="784.49339" fill="#353535"/>
  <rect stroke="null" id="svg_17" height="37.49909" width="89.99784" y="319.23005" x="129.50914" fill="#353535"/>
 </g>
</svg>